<svg width="362" height="92" viewBox="0 0 362 92" fill="none" xmlns="http://www.w3.org/2000/svg">
<path d="M41.1276 48L41.1276 84L65 84C72.1797 84 78 78.1797 78 71L78 34.586C78 30.349 75.9352 26.3778 72.4669 23.9442L49.8603 8.08208C45.4898 5.01548 39.6887 4.93286 35.2326 7.87376L10.8392 23.9729C7.19362 26.3789 5 30.4549 5 34.8229L5 71C5 78.1797 10.8203 84 18 84L28.216 84" stroke="#184DA7" stroke-width="10"/>
<path d="M41.1276 48L41.1276 84L65 84C72.1797 84 78 78.1797 78 71L78 34.586C78 30.349 75.9352 26.3778 72.4669 23.9442L49.8603 8.08208C45.4898 5.01548 39.6887 4.93286 35.2326 7.87376L10.8392 23.9729C7.19362 26.3789 5 30.4549 5 34.8229L5 71C5 78.1797 10.8203 84 18 84L28.216 84" stroke="#184DA7" stroke-width="10"/>
<path d="M41 38L26.5662 63L55.4338 63L41 38ZM43.5 63.5L43.5 60.5L38.5 60.5L38.5 63.5L43.5 63.5Z" fill="#184DA7"/>
<path d="M41 38L26.5662 63L55.4338 63L41 38ZM43.5 63.5L43.5 60.5L38.5 60.5L38.5 63.5L43.5 63.5Z" fill="#184DA7"/>
<path d="M116.552 60V77H108.392V30.76H123.828C128.497 30.76 132.079 31.9613 134.572 34.364C137.111 36.7213 138.38 39.8947 138.38 43.884V46.808C138.38 49.4373 137.813 51.7493 136.68 53.744C135.547 55.7387 133.915 57.2573 131.784 58.3C135.501 64.6467 138.675 70.88 141.304 77H131.988C129.721 71.3333 127.024 65.6667 123.896 60H116.552ZM123.828 38.24H116.552V52.52H123.828C125.823 52.52 127.341 52.0213 128.384 51.024C129.472 49.9813 130.016 48.576 130.016 46.808V43.884C130.016 42.1613 129.472 40.8013 128.384 39.804C127.341 38.7613 125.823 38.24 123.828 38.24ZM176.622 69.18V77H149.83V30.76H175.942V38.58H157.99V49.664H173.902V57.484H157.99V69.18H176.622ZM196.351 70.132C201.609 70.132 204.239 68.1827 204.239 64.284C204.239 62.6973 203.831 61.4507 203.015 60.544C202.244 59.6373 200.793 58.844 198.663 58.164L193.087 56.328C186.423 54.152 183.091 49.7773 183.091 43.204C183.091 39.396 184.269 36.268 186.627 33.82C189.029 31.3267 192.769 30.08 197.847 30.08C199.977 30.08 202.085 30.3293 204.171 30.828C206.256 31.2813 208.477 32.0293 210.835 33.072L208.319 40.076C206.143 39.2147 204.284 38.6027 202.743 38.24C201.247 37.832 199.705 37.628 198.119 37.628C196.033 37.628 194.379 38.0133 193.155 38.784C191.976 39.5093 191.387 40.8467 191.387 42.796C191.387 44.2467 191.795 45.448 192.611 46.4C193.472 47.3067 194.877 48.0773 196.827 48.712L202.403 50.548C205.757 51.6813 208.273 53.336 209.951 55.512C211.673 57.6427 212.535 60.476 212.535 64.012C212.535 68.092 211.243 71.4013 208.659 73.94C206.075 76.4333 202.017 77.68 196.487 77.68C194.311 77.68 192.044 77.4307 189.687 76.932C187.375 76.388 184.836 75.4813 182.071 74.212L184.587 67.208C187.125 68.296 189.279 69.0667 191.047 69.52C192.86 69.928 194.628 70.132 196.351 70.132ZM229.642 77H221.482V30.76H229.642V77ZM269.056 69.18V77H242.4V30.76H250.56V69.18H269.056ZM285.025 77H276.865V30.76H285.025V77ZM321.447 59.252H305.943V77H297.783V30.76H323.487V38.58H305.943V51.432H321.447V59.252ZM326.607 38.58V30.76H360.607V38.58H347.687V77H339.527V38.58H326.607Z" fill="#184DA7"/>
</svg>
