<?xml version="1.0" encoding="UTF-8" standalone="no"?>
<svg
   xmlns:shaper="http://www.shapertools.com/namespaces/shaper"
   xmlns:dc="http://purl.org/dc/elements/1.1/"
   xmlns:cc="http://creativecommons.org/ns#"
   xmlns:rdf="http://www.w3.org/1999/02/22-rdf-syntax-ns#"
   xmlns:svg="http://www.w3.org/2000/svg"
   xmlns="http://www.w3.org/2000/svg"
   xmlns:sodipodi="http://sodipodi.sourceforge.net/DTD/sodipodi-0.dtd"
   xmlns:inkscape="http://www.inkscape.org/namespaces/inkscape"
   inkscape:export-ydpi="96"
   inkscape:export-xdpi="96"
   inkscape:export-filename="/Users/maiky/Downloads/resilift logo test.png"
   shaper:fusionaddin="version:1.7.0"
   width="25cm"
   height="5cm"
   version="1.1"
   x="0cm"
   y="0cm"
   viewBox="0 0 25 4.9999999"
   enable-background="new 0 0 4.8777465 4.6126436"
   xml:space="preserve"
   id="svg1632"
   sodipodi:docname="resilift_banner_logo_text_2023_09_30.svg"
   inkscape:version="1.0beta2 (2b71d25, 2019-12-03)"><metadata
     id="metadata1638"><rdf:RDF><cc:Work
         rdf:about=""><dc:format>image/svg+xml</dc:format><dc:type
           rdf:resource="http://purl.org/dc/dcmitype/StillImage" /><dc:title /></cc:Work></rdf:RDF></metadata><defs
     id="defs1636" /><sodipodi:namedview
     pagecolor="#ffffff"
     bordercolor="#666666"
     inkscape:document-rotation="0"
     borderopacity="1"
     objecttolerance="10"
     gridtolerance="10"
     guidetolerance="10"
     inkscape:pageopacity="0"
     inkscape:pageshadow="2"
     inkscape:window-width="1440"
     inkscape:window-height="847"
     id="namedview1634"
     showgrid="false"
     inkscape:zoom="0.61940342"
     inkscape:cx="225.61738"
     inkscape:cy="-81.503737"
     inkscape:window-x="0"
     inkscape:window-y="25"
     inkscape:window-maximized="0"
     inkscape:current-layer="text881" /><path
     d="M 4.5602373,4.1330126 A 0.57004128,0.57004131 0 0 1 4.1157657,4.578851 H 2.8156072 V 3.7504109 h 0.4016356 a 0.1222792,0.1222792 0 0 0 0.08207,-0.2002454 L 2.7576835,2.8313935 A 0.15188,0.15188 0 0 0 2.6289271,2.7600345 0.15188,0.15188 0 0 0 2.500171,2.8313935 l -0.54163,0.718772 a 0.1222792,0.1222792 0 0 0 0.08207,0.2002454 h 0.3999973 v 1.2 h 8.19e-4 v 0.00344 H 4.1157657 A 0.93529499,0.93529501 0 0 0 4.9352362,4.1330126 V 1.9152953 A 0.78001699,0.78001701 0 0 0 4.578443,1.2600784 L 3.1815621,0.22913522 a 1.074383,1.074383 0 0 0 -1.1052697,0 L 0.67941125,1.2600784 A 0.78001699,0.78001701 0 0 0 0.3226185,1.9152953 v 2.2177173 a 0.93529499,0.93529501 0 0 0 0.819469,0.8208384 h 0.8828572 v -0.375 H 1.1420875 A 0.57004128,0.57004131 0 0 1 0.69761625,4.1330126 V 1.9152953 A 0.42551689,0.4255169 0 0 1 0.90209101,1.5618034 L 2.2989719,0.53086022 a 0.71854568,0.71854571 0 0 1 0.6599094,0 L 4.3557635,1.5618034 a 0.42551689,0.4255169 0 0 1 0.2044738,0.3534919 z"
     fill="rgb(0,0,0)"
     shaper:cutDepth="3.5cm"
     stroke-linecap="round"
     stroke-linejoin="round"
     id="path1630"
     inkscape:connector-curvature="0"
     style="fill:#0048ac;fill-opacity:1;stroke-width:1"
     inkscape:export-filename="/Users/maiky/RESILIFT_Logo_2023_09_30.png"
     inkscape:export-xdpi="96"
     inkscape:export-ydpi="96" /><g
     style="font-style:normal;font-weight:normal;font-size:4.40972px;line-height:1.25;font-family:sans-serif;fill:#0048ac;fill-opacity:0.972549;stroke:none;stroke-width:0.0268932"
     id="text881"
     transform="scale(0.99866428,1.0013375)"
     aria-label="RESILIFT"><path
       id="path848"
       style="font-style:normal;font-variant:normal;font-weight:bold;font-stretch:normal;font-family:'Josefin Sans';-inkscape-font-specification:'Josefin Sans Bold';fill:#0048ac;fill-opacity:0.972549;stroke-width:0.0268932"
       d="m 6.7599326,1.6664024 q 0.3042707,0 0.5423956,0.079375 0.2381249,0.074965 0.3968748,0.220486 0.1631596,0.141111 0.2469443,0.3439581 0.083785,0.1984374 0.083785,0.4497915 0,0.1984374 -0.061736,0.3968748 Q 7.9108695,3.3553252 7.7741682,3.5184848 7.6418766,3.6816444 7.4213906,3.783068 7.2009046,3.8800818 6.8745854,3.8800818 H 6.4159745 V 4.9119563 H 5.7765651 V 1.6664024 Z m 0.110243,1.5963187 q 0.1455208,0 0.2425346,-0.048507 0.097014,-0.048507 0.1499305,-0.1234721 0.057326,-0.074965 0.079375,-0.1543402 0.026458,-0.083785 0.026458,-0.1543402 0,-0.052917 -0.017639,-0.1322916 Q 7.337606,2.5659853 7.289099,2.4822006 7.2405921,2.3984159 7.1391686,2.3410896 7.0421547,2.2837632 6.8745854,2.2837632 H 6.4159745 v 0.9789579 z m 0.599722,0.3968747 0.802569,1.2523605 H 7.5272239 L 6.707016,3.6772347 Z" /><path
       id="path850"
       style="font-style:normal;font-variant:normal;font-weight:bold;font-stretch:normal;font-family:'Josefin Sans';-inkscape-font-specification:'Josefin Sans Bold';fill:#0048ac;fill-opacity:0.972549;stroke-width:0.0268932"
       d="M 8.7996347,1.6664024 H 11.013314 V 2.2837632 H 9.4390441 V 2.9760893 H 10.832516 V 3.59345 H 9.4390441 V 4.2945955 H 11.07505 V 4.9119563 H 8.7996347 Z" /><path
       id="path852"
       style="font-style:normal;font-variant:normal;font-weight:bold;font-stretch:normal;font-family:'Josefin Sans';-inkscape-font-specification:'Josefin Sans Bold';fill:#0048ac;fill-opacity:0.972549;stroke-width:0.0268932"
       d="M 13.469597,2.4513326 Q 13.284389,2.349909 13.090361,2.2837632 q -0.189618,-0.066146 -0.357187,-0.066146 -0.207257,0 -0.32632,0.083785 -0.119062,0.083785 -0.119062,0.251354 0,0.1146528 0.08819,0.2072569 0.09261,0.088194 0.233716,0.1587499 0.14552,0.070556 0.299861,0.1278819 0.141111,0.052917 0.277812,0.1278819 0.141111,0.070556 0.251354,0.1807985 0.110243,0.1058332 0.176389,0.2689929 0.06615,0.1587499 0.06615,0.3924651 0,0.2469443 -0.127882,0.4586108 -0.127882,0.2116666 -0.374827,0.3439582 -0.246944,0.1278819 -0.608541,0.1278819 -0.185208,0 -0.379236,-0.035278 Q 12.00116,4.8722688 11.815952,4.7973036 11.630744,4.7179286 11.458765,4.5988662 l 0.282222,-0.4982984 q 0.114652,0.083785 0.246944,0.1499305 0.136701,0.061736 0.273403,0.097014 0.136701,0.035278 0.251354,0.035278 0.114652,0 0.229305,-0.030868 0.119063,-0.035278 0.194028,-0.1146527 0.07938,-0.079375 0.07938,-0.220486 0,-0.097014 -0.06615,-0.1763888 -0.06174,-0.079375 -0.171979,-0.1455208 -0.105833,-0.066146 -0.233715,-0.1146527 -0.149931,-0.057326 -0.308681,-0.1322916 -0.15875,-0.074965 -0.299861,-0.1807985 -0.136701,-0.110243 -0.224895,-0.2689929 -0.08379,-0.1631597 -0.08379,-0.3968748 0,-0.2822221 0.123472,-0.489479 0.127882,-0.2072568 0.357188,-0.3263192 0.229305,-0.1234722 0.529166,-0.1367013 0.392465,0 0.635,0.092604 0.246944,0.092604 0.440972,0.220486 z" /><path
       id="path854"
       style="font-style:normal;font-variant:normal;font-weight:bold;font-stretch:normal;font-family:'Josefin Sans';-inkscape-font-specification:'Josefin Sans Bold';fill:#0048ac;fill-opacity:0.972549;stroke-width:0.0268932"
       d="m 14.311784,1.6664024 h 0.63941 v 3.2455539 h -0.63941 z" /><path
       id="path856"
       style="font-style:normal;font-variant:normal;font-weight:bold;font-stretch:normal;font-family:'Josefin Sans';-inkscape-font-specification:'Josefin Sans Bold';fill:#0048ac;fill-opacity:0.972549;stroke-width:0.0268932"
       d="m 15.793174,1.6664024 h 0.63941 v 2.6281931 h 1.525763 v 0.6173608 h -2.165173 z" /><path
       id="path858"
       style="font-style:normal;font-variant:normal;font-weight:bold;font-stretch:normal;font-family:'Josefin Sans';-inkscape-font-specification:'Josefin Sans Bold';fill:#0048ac;fill-opacity:0.972549;stroke-width:0.0268932"
       d="m 18.618152,1.6664024 h 0.63941 v 3.2455539 h -0.63941 z" /><path
       id="path860"
       style="font-style:normal;font-variant:normal;font-weight:bold;font-stretch:normal;font-family:'Josefin Sans';-inkscape-font-specification:'Josefin Sans Bold';fill:#0048ac;fill-opacity:0.972549;stroke-width:0.0268932"
       d="m 20.099542,1.6664024 h 2.028471 v 0.6173608 h -1.389061 v 0.7364233 h 1.203853 v 0.6173607 h -1.203853 v 1.2744091 h -0.63941 z" /><path
       id="path862"
       style="font-style:normal;font-variant:normal;font-weight:bold;font-stretch:normal;font-family:'Josefin Sans';-inkscape-font-specification:'Josefin Sans Bold';fill:#0048ac;fill-opacity:0.972549;stroke-width:0.0268932"
       d="m 22.523166,1.6664024 h 2.187221 v 0.6173608 h -0.78934 V 4.9119563 H 23.281638 V 2.2837632 h -0.758472 z" /></g></svg>
