<?xml version="1.0" encoding="UTF-8" standalone="no"?>
<svg
   xmlns:shaper="http://www.shapertools.com/namespaces/shaper"
   xmlns:dc="http://purl.org/dc/elements/1.1/"
   xmlns:cc="http://creativecommons.org/ns#"
   xmlns:rdf="http://www.w3.org/1999/02/22-rdf-syntax-ns#"
   xmlns:svg="http://www.w3.org/2000/svg"
   xmlns="http://www.w3.org/2000/svg"
   xmlns:sodipodi="http://sodipodi.sourceforge.net/DTD/sodipodi-0.dtd"
   xmlns:inkscape="http://www.inkscape.org/namespaces/inkscape"
   shaper:fusionaddin="version:1.7.0"
   width="5cm"
   height="5cm"
   version="1.1"
   x="0cm"
   y="0cm"
   viewBox="0 0 4.9999999 4.9999999"
   enable-background="new 0 0 4.8777465 4.6126436"
   xml:space="preserve"
   id="svg1632"
   sodipodi:docname="resilift_logo_2.0.svg"
   inkscape:version="1.0beta2 (2b71d25, 2019-12-03)"><metadata
     id="metadata1638"><rdf:RDF><cc:Work
         rdf:about=""><dc:format>image/svg+xml</dc:format><dc:type
           rdf:resource="http://purl.org/dc/dcmitype/StillImage" /><dc:title></dc:title></cc:Work></rdf:RDF></metadata><defs
     id="defs1636" /><sodipodi:namedview
     pagecolor="#ffffff"
     bordercolor="#666666"
     inkscape:document-rotation="0"
     borderopacity="1"
     objecttolerance="10"
     gridtolerance="10"
     guidetolerance="10"
     inkscape:pageopacity="0"
     inkscape:pageshadow="2"
     inkscape:window-width="1920"
     inkscape:window-height="1027"
     id="namedview1634"
     showgrid="false"
     inkscape:zoom="1.5602043"
     inkscape:cx="12.380647"
     inkscape:cy="87.16807"
     inkscape:window-x="1440"
     inkscape:window-y="25"
     inkscape:window-maximized="0"
     inkscape:current-layer="svg1632" /><path
     d="M 4.4313216,4.1180348 A 0.5700413,0.5700413 0 0 1 3.9868472,4.5638732 H 2.6866809 V 3.7354331 H 3.0883188 A 0.1222792,0.1222792 0 0 0 3.1703901,3.5351877 L 2.6287566,2.8164157 A 0.15188,0.15188 0 0 0 2.4999998,2.745057 0.15188,0.15188 0 0 0 2.3712431,2.8164157 l -0.5416335,0.718772 a 0.1222792,0.1222792 0 0 0 0.082071,0.2002454 h 0.4 v 1.2 h 8.189e-4 v 0.00344 H 3.9868472 A 0.935295,0.935295 0 0 0 4.8063216,4.1180348 V 1.9003175 A 0.780017,0.780017 0 0 0 4.4495271,1.2451006 L 3.0526378,0.21415733 a 1.074383,1.074383 0 0 0 -1.1052759,0 L 0.55047273,1.2451006 A 0.780017,0.780017 0 0 0 0.19367823,1.9003175 V 4.1180348 A 0.935295,0.935295 0 0 0 1.0131525,4.9388732 h 0.8828614 v -0.375 H 1.0131525 A 0.5700413,0.5700413 0 0 1 0.56867823,4.1180348 V 1.9003175 A 0.4255169,0.4255169 0 0 1 0.77315413,1.5468256 L 2.1700434,0.51588233 a 0.7185457,0.7185457 0 0 1 0.6599129,0 L 4.2268456,1.5468256 a 0.4255169,0.4255169 0 0 1 0.204476,0.3534919 z"
     fill="rgb(0,0,0)"
     shaper:cutDepth="3.5cm"
     stroke-linecap="round"
     stroke-linejoin="round"
     id="path1630"
     inkscape:connector-curvature="0"
     style="fill:#0048ac;fill-opacity:1" /></svg>
